<svg xmlns="http://www.w3.org/2000/svg" fill="none" viewBox="0 0 546 535"><rect width="546" height="535" fill="#fff" rx="42"/><path fill="#094CD3" d="M295.66 128.48H85.69v86.22h209.97v-86.22Zm-26.4 134.03v87.34h-94.44v35.3H85.69v-78.01h122.6v-9.42H85.69v-65.88h89.13v30.67h94.44Zm26.4 139.86v82.73H118.61a32.93 32.93 0 0 1-32.92-32.93v-49.8h209.97ZM446.7 262.51v86.68h-54.75V485.1H304.6V307.14h95.87v-9.42H304.6v-65.88h87.16v30.67h54.94Zm64.96-134.03H304.6v86.22h207.06v-86.22Zm-325.5-15.57V51.34H85.69v61.56h35.01v7.26h-10.95v5.35h52.36v-5.35h-10.95v-7.26h35.01l-.01.01ZM91.4 56.6h89.05v26.05a53.08 53.08 0 0 0-7.14-8.84 52.53 52.53 0 0 0-37.39-15.49c-14.12 0-27.4 5.5-37.39 15.49a53.59 53.59 0 0 0-7.14 8.84V56.6h.01Zm0 51.04V92.59a48.33 48.33 0 0 1 44.53-29.64 48.34 48.34 0 0 1 44.53 29.64v15.05h-8.23a36.52 36.52 0 0 0-36.3-32.91 36.52 36.52 0 0 0-36.3 32.91H91.4Zm12.87 0a31.9 31.9 0 0 1 31.66-28.29 31.9 31.9 0 0 1 31.66 28.29h-9.04a22.93 22.93 0 0 0-22.62-19.33 22.93 22.93 0 0 0-22.62 19.33h-9.04Zm31.66 10.75a2.54 2.54 0 1 1 0-5.09 2.54 2.54 0 0 1 0 5.09ZM118 107.64a18.3 18.3 0 0 1 17.93-14.71c8.86 0 16.27 6.34 17.93 14.71H118Zm158.22-49.33a6.96 6.96 0 1 0-9.87 6.32v60.89h5.84v-60.9a6.95 6.95 0 0 0 4.05-6.32l-.02.01ZM82.72 184.69v-6a32.28 32.28 0 0 0-32.25 32.24v42.77H35.22v22.07h15.25v56.48H35v24.02C35 362.2 39.81 367 45.73 367h32.56v-34.75H56.46v-56.48h21.83v-6H41.22V259.7h37.07v-6H56.46v-42.77a26.27 26.27 0 0 1 26.25-26.24h.01ZM65.21 356.72H47.16v-4.55h18.05v4.55Zm0-14v4.55H47.16v-4.55h18.05ZM408.13 85.4c-7.13 0-13.77 3-18.47 8.17l7.79 7.79a13.94 13.94 0 0 1 21.35.01l7.8-7.8a24.97 24.97 0 0 0-18.46-8.17h-.01Z"/><path fill="#094CD3" d="M408.13 66.99a43.35 43.35 0 0 0-31.5 13.55l7.79 7.79a32.34 32.34 0 0 1 47.41.01l7.78-7.78A43.4 43.4 0 0 0 408.13 67v-.01Z"/><path fill="#094CD3" d="M408.13 61a48.97 48.97 0 0 1 35.66 15.22l3.64-3.49 4.21-4.21A59.88 59.88 0 0 0 408.13 50a60.24 60.24 0 0 0-43.5 18.53l7.78 7.78A49.55 49.55 0 0 1 408.14 61h-.01Zm-.16 56.99a7.6 7.6 0 1 1 .2-15.19 7.6 7.6 0 0 1-.2 15.18v.01Zm63.83 207.88c-.23-.14-.48-.25-.67-.42-.42-.36-.52-.86-.52-1.4v-13.68l-.36.32-6.88 6.71c-.67.65-1.54.72-2.19.18a1.52 1.52 0 0 1-.23-2.14c.11-.14.24-.28.38-.4l7.9-7.71.45-.37c-.19-.1-.33-.15-.42-.24l-8.01-7.81c-.47-.46-.75-.97-.58-1.64a1.54 1.54 0 0 1 2.45-.86c.13.1.24.21.36.32l6.74 6.58.39.36v-13.7c0-.61.14-1.15.66-1.51.68-.47 1.44-.38 2.1.26l4.69 4.57c1.24 1.21 2.48 2.41 3.71 3.63.84.82.84 1.71 0 2.53l-7.4 7.22-.45.4c.18.11.32.16.42.26l7.32 7.14c.97.94.97 1.77.01 2.71-2.7 2.63-5.39 5.27-8.09 7.88-.33.31-.75.53-1.13.79h-.66l.01.02Zm1.93-14.76v9.48l4.86-4.74-4.86-4.74Zm.01-17.64v9.46l4.85-4.74-4.85-4.73v.01Zm-2.24 55.76a27.54 27.54 0 0 0-27.5 27.5V405a27.54 27.54 0 0 0 27.5 27.5A27.54 27.54 0 0 0 499 405v-28.27a27.54 27.54 0 0 0-27.5-27.5Zm0 25.37a2.39 2.39 0 0 1-2.38-2.38v-8.66a2.39 2.39 0 0 1 4.76 0v8.66a2.39 2.39 0 0 1-2.38 2.38Zm24.81 30.41a24.84 24.84 0 0 1-24.81 24.81 24.84 24.84 0 0 1-24.81-24.81v-28.27a24.84 24.84 0 0 1 23.46-24.77v6.7a5.08 5.08 0 0 0-3.73 4.89v8.66c0 2.33 1.58 4.3 3.73 4.89v9.12h2.69v-9.12a5.08 5.08 0 0 0 3.73-4.89v-8.66c0-2.33-1.58-4.3-3.73-4.89v-6.7a24.84 24.84 0 0 1 23.46 24.77v28.27h.01Z"/></svg>